<?xml version="1.0" encoding="utf-8"?>
<!-- Generator: Adobe Illustrator 16.0.3, SVG Export Plug-In . SVG Version: 6.00 Build 0)  -->
<!DOCTYPE svg PUBLIC "-//W3C//DTD SVG 1.1//EN" "http://www.w3.org/Graphics/SVG/1.1/DTD/svg11.dtd">
<svg version="1.1" id="Layer_1" xmlns="http://www.w3.org/2000/svg" xmlns:xlink="http://www.w3.org/1999/xlink" x="0px" y="0px"
	 width="576px" height="622px" viewBox="0 0 576 622" enable-background="new 0 0 576 622" xml:space="preserve">
<g id="layer1">
	<path id="path3921" fill="#FFFFFF" d="M63.326,183.484c0.133,0.02,13.105,3.287,36.058,14.456
		c20.665,10.044,33.986,20.687,34.12,20.791l3.039-3.801c-0.546-0.446-13.856-11.058-35.026-21.378
		c-23.468-11.417-36.475-14.675-37.011-14.8L63.326,183.484"/>
	<path id="path3925" fill="#FFFFFF" d="M66.473,241.327c0.979,0.113,23.962,3.023,34.805,2.818l32.04-2.26l-0.454-4.852
		l-31.684,2.245c-10.486,0.211-33.854-2.759-34.064-2.784L66.473,241.327"/>
	<path id="path3929" fill="#FFFFFF" d="M517.084,212.244c-13.175,4.072-39.282,7.37-39.541,7.4l0.618,4.826
		c1.067-0.137,26.762-3.389,40.368-7.594c16.096-4.981,27.096-13.822,27.554-14.197l-3.058-3.776
		C542.905,198.988,532.25,207.555,517.084,212.244"/>
	<path id="path3933" fill="#FFFFFF" d="M478.26,258.74c0.649,0.275,16.011,7.116,32.325,9.363
		c16.018,2.149,26.807,1.626,27.275,1.59l-0.259-4.854c-0.115,0-10.85,0.533-26.369-1.565c-15.597-2.147-30.814-8.909-30.975-8.973
		L478.26,258.74"/>
	<path id="path3937" fill="#FFFFFF" d="M509.538,235.557c-3.935-21.824-20.249-36.076-33.264-44.17
		c-5.119-3.238-9.811-5.578-13.303-7.161c-0.894-9.96-4.325-31.401-17.868-56.36c-9.607-17.785-37.92-41.847-46.274-48.783
		c-1.105-5.271-16.436-78.541-16.436-78.541s-0.549,0.494-0.591,0.519C381.786,0.922,381.576,0,381.576,0
		s-50.667,45.587-53.702,48.278c-3.352,0.752-20.418,4.595-22.593,5.091c-9.58-1.08-18.362-1.587-26.734-1.496
		c-22.325,0.266-43.893,5.181-52.487,7.383c-5.83-4.069-68.971-47.989-68.971-47.989c0.058,0.088-0.723-0.438-0.723-0.438
		L141.803,0.524c0,0,9.635,118.119,10.141,124.219c-8.874,11.566-36.762,51.445-36.762,96.533c0,16.108,3.599,32.93,12.949,49.28
		c12.402,21.767,29.697,40.154,51.409,54.786c-11.946,3.693-22.042,12.014-32.546,20.74l-10.735,8.664
		c-2.506,1.959-5.428,3.736-8.446,5.629c-9.421,5.824-21.854,13.525-21.854,29.324c0,2.637,0.35,5.477,1.098,8.578
		c0.904,3.707,2.949,11.242,6.388,20.148c-9.006-3.576-16.894-8.582-23.52-15.004C78.56,392.42,70.28,378.533,63.015,366.238
		c-5.911-10.014-11.049-18.643-17.055-24.531c-10.387-10.145-20.45-8.354-27.054-5.084C7.203,342.418,0,358.449,0,378.154
		c0,1.406,0.05,2.824,0.123,4.27c1.477,28.723,19.034,65.395,63.808,82.082c11.35,4.26,22.237,6.68,32.569,8.172
		c-5.149,1.752-9.67,3.113-12.571,3.936c-6.404-3.297-20.044-8.072-34.91,0.854c-12.708,7.637-13.983,25.793-3.592,49.846
		c12.552,29.029,43.677,68.453,70.502,60.85c12.203-3.414,20.061-9.699,23.382-18.625c1.193-3.16,1.689-6.418,1.689-9.67
		c0-11.094-5.825-22.236-10.962-30.529c36.935-10.729,73.279-31.721,86.64-39.92c9.275,9.057,18.402,18.217,27.029,27.375
		c26.853,28.58,66.302,62.898,67.972,64.338l1.817,1.594l2.374,0.354c1.617,0.215,39.359,5.953,71.516,7.23
		c34.042,1.352,48.281-2.4,50.887-13.518c3.145-13.287,1.228-24.629-5.615-33.633c-9.684-12.709-28.536-19.715-56.109-20.813
		c-11.75-0.469-22.053,0.305-27.424,0.814c-15.889-14.602-28.194-26.014-34.755-32.189c-7.49-7.082-19.375-19.232-35.314-36.057
		c5.66-5.291,11.703-12.51,19.222-22.924c1.507-2.078,3.124-4.576,4.795-7.395c3.618,2.697,9.409,7.664,17.858,16.773
		c10.516,11.281,21.248,16.643,32.901,16.424c9.753-0.166,18.635-4.203,27.276-8.109l0.738-0.369
		c10.841-4.951,46.268-22.781,50.278-45.613c1.02-5.893,0.43-14.705-8.297-23.293c-6.77-6.58-13.528-10.104-20.669-10.746
		c-11.351-1.025-20.667,5.643-28.896,11.541c-5.289,3.836-10.312,7.42-15.519,9.102c-1.627,0.5-3.164,0.764-4.58,0.764
		c-6.579,0-11.35-5.984-17.895-15.111c-2.399-3.277-4.824-6.734-7.515-9.605c-1.407-1.506-2.854-2.908-4.242-4.275
		c15.461-0.471,31.169-1.945,46.956-4.445c72.033-11.656,106.277-41.107,122.341-63.722c10.855-15.304,16.639-32.254,16.639-47.921
		C510.447,242.449,510.166,238.955,509.538,235.557"/>
	<path id="path3941" fill="#221E1F" d="M509.538,235.557c-3.935-21.824-20.249-36.076-33.264-44.17
		c-5.119-3.238-9.811-5.578-13.303-7.161c-0.894-9.96-4.325-31.401-17.868-56.36c-9.607-17.785-37.92-41.847-46.274-48.783
		c-1.105-5.271-16.436-78.541-16.436-78.541s-0.549,0.494-0.591,0.519C381.786,0.922,381.576,0,381.576,0
		s-50.667,45.587-53.702,48.278c-3.352,0.752-20.418,4.595-22.593,5.091c-9.58-1.08-18.362-1.587-26.734-1.496
		c-22.325,0.266-43.893,5.181-52.487,7.383c-5.83-4.069-68.971-47.989-68.971-47.989c0.058,0.088-0.723-0.438-0.723-0.438
		L141.803,0.524c0,0,9.635,118.119,10.141,124.219c-8.874,11.566-36.762,51.445-36.762,96.533c0,16.108,3.599,32.93,12.949,49.28
		c12.402,21.767,29.697,40.154,51.409,54.786c-11.946,3.693-22.042,12.014-32.546,20.74l-10.735,8.664
		c-2.506,1.959-5.428,3.736-8.446,5.629c-9.421,5.824-21.854,13.525-21.854,29.324c0,2.637,0.35,5.477,1.098,8.578
		c0.904,3.707,2.949,11.242,6.388,20.148c-9.006-3.576-16.894-8.582-23.52-15.004C78.56,392.42,70.28,378.533,63.015,366.238
		c-5.911-10.014-11.049-18.643-17.055-24.531c-10.387-10.145-20.45-8.354-27.054-5.084C7.203,342.418,0,358.449,0,378.154
		c0,1.406,0.05,2.824,0.123,4.27c1.477,28.723,19.034,65.395,63.808,82.082c11.35,4.26,22.237,6.68,32.569,8.172
		c-5.149,1.752-9.67,3.113-12.571,3.936c-6.404-3.297-20.044-8.072-34.91,0.854c-12.708,7.637-13.983,25.793-3.592,49.846
		c12.552,29.029,43.677,68.453,70.502,60.85c12.203-3.414,20.061-9.699,23.382-18.625c1.193-3.16,1.689-6.418,1.689-9.67
		c0-11.094-5.825-22.236-10.962-30.529c36.935-10.729,73.279-31.721,86.64-39.92c9.275,9.057,18.402,18.217,27.029,27.375
		c26.853,28.58,66.302,62.898,67.972,64.338l1.817,1.594l2.374,0.354c1.617,0.215,39.359,5.953,71.516,7.23
		c34.042,1.352,48.281-2.4,50.887-13.518c3.145-13.287,1.228-24.629-5.615-33.633c-9.684-12.709-28.536-19.715-56.109-20.813
		c-11.75-0.469-22.053,0.305-27.424,0.814c-15.889-14.602-28.194-26.014-34.755-32.189c-7.49-7.082-19.375-19.232-35.314-36.057
		c5.66-5.291,11.703-12.51,19.222-22.924c1.507-2.078,3.124-4.576,4.795-7.395c3.618,2.697,9.409,7.664,17.858,16.773
		c10.516,11.281,21.248,16.643,32.901,16.424c9.753-0.166,18.635-4.203,27.276-8.109l0.738-0.369
		c10.841-4.951,46.268-22.781,50.278-45.613c1.02-5.893,0.43-14.705-8.297-23.293c-6.77-6.58-13.528-10.104-20.669-10.746
		c-11.351-1.025-20.667,5.643-28.896,11.541c-5.289,3.836-10.312,7.42-15.519,9.102c-1.627,0.5-3.164,0.764-4.58,0.764
		c-6.579,0-11.35-5.984-17.895-15.111c-2.399-3.277-4.824-6.734-7.515-9.605c-1.407-1.506-2.854-2.908-4.242-4.275
		c15.461-0.471,31.169-1.945,46.956-4.445c72.033-11.656,106.277-41.107,122.341-63.722c10.855-15.304,16.639-32.254,16.639-47.921
		C510.447,242.449,510.166,238.955,509.538,235.557"/>
	<path id="path3945" fill="#F8A31F" d="M370.164,349.355c109.064-17.566,137.129-79.073,131.18-112.305
		c-5.997-33.223-46.43-46.936-46.43-46.936s0.419-25.873-17.14-58.257c-10.422-19.26-46.521-48.166-46.521-48.166L377.161,16.38
		l-44.495,40.065l-24.988,5.619c-8.853-1.151-18.833-1.977-29.053-1.859c-27.344,0.326-54.142,8.087-54.142,8.087l-72.169-50.18
		l8.94,109.693c3.934-4.438-63.59,71.726-25.115,139.123c18.023,31.646,46.744,55.493,83.25,70.192l-2.688,2.262
		c-2.012-1.523-4.492-2.936-7.69-4.197c-28.722-11.467-43.687,7.68-67.548,26.139c-12.88,9.943-31.2,14.479-26.257,34.955
		c1.976,8.031,6.28,21.732,13.216,34.469l-0.731,0.418c-13.85-2.689-30.056-8.703-43.591-21.736
		c-30.444-29.465-38.826-76.588-61.5-65.357c-22.712,11.264-25.015,86.818,44.25,112.586c23.819,8.93,45.866,9.746,63.74,9.916
		L130.56,466l14.841-6.941c-3.875,2.385-9.696,5.699-17.895,9.721l-20.289,7.76l-0.634,1.438c-12.098,4.51-23.819,7.66-23.819,7.66
		s-13.915-10.35-29.436-1.02c-25.424,15.279,29.181,104.328,60.313,95.521c37.735-10.652,8.577-46.734,3.188-55.961
		c48.14-10.969,100.608-45.039,100.608-45.039l-0.814,0.314l1.215-0.609c9.346,8.951,20.345,19.855,32.041,32.262
		c26.889,28.541,67.312,63.725,67.312,63.725s109.105,16.602,112.989,0.035c13.141-56.113-83.908-42.967-83.908-42.967
		s-25.776-23.652-37.618-34.877c-10.538-9.979-27.848-28.068-41.548-42.613l1.085-1.275c6.893-5.045,14.097-13.273,23.327-26.021
		c3.044-4.203,6.263-9.867,9.003-15.266l-0.012,1.611c0,0,7.073,1.232,26.597,22.225c19.515,20.977,34.392,13.742,51.331,6.039
		c16.893-7.744,62.11-33.174,39.51-55.33c-22.617-22.154-36.103,5.301-56.6,11.857c-20.518,6.531-28.682-15.424-38.711-26.191
		c-8.543-9.254-17.605-15.01-20.03-16.492l0.24-1.791C324.054,354.502,346.558,353.189,370.164,349.355"/>
	<path id="path3949" fill="#FFFFFF" d="M24.969,344.377c-13.871,2.559-20.156,28.688-15.001,49.48
		c5.106,20.758,11.467,34.715,21.486,42.422c9.995,7.701-1.818-17.684,10.797-27.549c12.595-9.85,34-4.176,34-4.176
		s-16.3-24.105-25.561-38.656C41.392,351.342,38.29,341.906,24.969,344.377"/>
	<path id="path3953" fill="#FFFFFF" d="M295.991,419.59c0,0,14.811-14.846-13.153-31.207c-27.981-16.412-41.657-1.631-50.772,6.947
		c-15.859,14.754,17.135,42.354,17.135,42.354l18.406,14.994c0,0,11.004-8.467,15.67-15.957
		C287.948,429.186,295.991,419.59,295.991,419.59"/>
	<path id="path3957" fill="#FFFFFF" d="M246.768,216.581c0,0-48.896,3.594-51.712,33.269
		c-7.054,74.45,115.965,104.159,115.965,104.159s58.061,4.301,111.668-21.238c53.677-25.497,85.033-57.462,77.882-94.991
		c-7.191-37.52-52.969-46.886-52.969-46.886l-11.557-14.674l-53.2,13.438c0,0-0.698,19.765-26.128,24.323
		c-25.443,4.572-64.27-15.496-64.27-15.496L246.768,216.581"/>
	<path id="path3961" fill="none" stroke="#42291B" stroke-width="1.25" d="M331.871,55.931l44.557-40.061l14.075,67.32
		c0,0,36.106,28.878,46.526,48.164c17.569,32.37,17.123,58.277,17.123,58.277s40.457,13.651,46.435,46.925
		c5.956,33.241-22.117,94.717-131.216,112.317c-109.046,17.584-195.513-14.99-233.991-82.428
		c-38.481-67.408,29.036-143.548,25.132-139.157l-8.967-109.63L236.406,77.5"/>
	<path id="path3965" fill="none" stroke="#42291B" stroke-width="1.25" d="M338.625,67.66c0,0-29.481-8.292-60.769-7.948
		c-27.329,0.293-54.143,8.093-54.143,8.093"/>
	<path id="path3969" fill="#FFFFFF" d="M285.228,145.417c15.944,26.46,13.072,57.493-6.443,69.238
		c-19.496,11.762-48.254-0.18-64.207-26.666c-16.002-26.486-13.096-57.478,6.406-69.234
		C240.513,106.991,269.279,118.92,285.228,145.417"/>
	<path id="path3973" fill="none" stroke="#42291B" stroke-width="5.05" d="M285.228,145.417
		c15.944,26.46,13.072,57.493-6.443,69.238c-19.496,11.762-48.254-0.18-64.207-26.666c-16.002-26.486-13.096-57.478,6.406-69.234
		C240.513,106.991,269.279,118.92,285.228,145.417z"/>
	<path id="path3977" fill="#FFFFFF" d="M424.335,131.639c15.963,26.451,15.505,56.016-0.979,65.956
		c-16.521,9.965-42.789-3.469-58.765-29.94c-15.989-26.486-15.57-56.01,0.978-65.979
		C382.057,91.756,408.393,105.144,424.335,131.639"/>
	<path id="path3981" fill="none" stroke="#42291B" stroke-width="5.05" d="M424.335,131.639
		c15.963,26.451,15.505,56.016-0.979,65.956c-16.521,9.965-42.789-3.469-58.765-29.94c-15.989-26.486-15.57-56.01,0.978-65.979
		C382.057,91.756,408.393,105.144,424.335,131.639L424.335,131.639z"/>
	<path id="path3985" fill="#221E1F" d="M268.125,182.753c-0.132,4.847-3.871,8.589-8.301,8.419c-4.429-0.145-7.86-4.196-7.659-8.997
		c0.168-4.78,3.892-8.532,8.298-8.357C264.883,173.953,268.286,177.98,268.125,182.753"/>
	<path id="path3989" fill="#221E1F" d="M414.909,169.261c-0.19,4.796-3.883,8.588-8.316,8.424c-4.384-0.176-7.871-4.183-7.69-8.973
		c0.19-4.819,3.931-8.581,8.343-8.412C411.675,160.444,415.088,164.471,414.909,169.261"/>
	<path id="path3993" fill="#604B44" d="M351.977,201.636c10.737,0.404,26.428-0.669,27.035,4.262
		c0.64,4.975-10.75,23.916-18.173,24.491c-7.425,0.537-34.879-14.865-34.949-23.923C325.806,197.41,342.126,201.292,351.977,201.636
		"/>
	<path id="path3997" fill="none" stroke="#42291B" stroke-width="0.985" d="M351.977,201.636
		c10.737,0.404,26.428-0.669,27.035,4.262c0.64,4.975-10.75,23.916-18.173,24.491c-7.425,0.537-34.879-14.865-34.949-23.923
		C325.806,197.41,342.126,201.292,351.977,201.636L351.977,201.636z"/>
	<path id="path4001" fill="none" stroke="#42291B" stroke-width="5.05" d="M135.019,216.841c0,0-13.395-10.794-34.568-21.104
		c-23.525-11.427-36.521-14.634-36.521-14.634"/>
	<path id="path4005" fill="none" stroke="#42291B" stroke-width="5.05" d="M66.775,238.912c0,0,23.66,3.014,34.452,2.81
		c10.795-0.227,31.872-2.265,31.872-2.265"/>
	<path id="path4009" fill="none" stroke="#42291B" stroke-width="5.05" d="M170.716,400.373c0,0,15.999-11.383,30.381-21.256
		c14.426-9.895,36.562-32.529,7.83-43.977c-28.723-11.422-43.68,7.725-67.516,26.184c-12.867,9.943-31.26,14.48-26.284,34.955
		c5.043,20.48,25.284,78.43,65.974,61.178c40.688-17.244-8.466-53.342-15.35-65.037"/>
	<path id="path4013" fill="none" stroke="#42291B" stroke-width="0.985" d="M301.884,355.182c0,0,10.718,6.102,20.688,16.854
		c10.032,10.789,18.197,32.744,38.706,26.213c20.525-6.555,33.972-34.012,56.615-11.857c22.597,22.156-22.644,47.586-39.549,55.33
		c-16.937,7.703-31.746,14.938-51.277-6.039c-19.549-20.992-26.634-22.225-26.634-22.225"/>
	<path id="path4017" fill="none" stroke="#42291B" stroke-width="1.25" d="M308.205,395.463c0,0-8.871,20.773-16.74,31.648
		c-9.442,12.992-16.751,21.35-23.805,26.381"/>
	<path id="path4021" fill="none" stroke="#42291B" stroke-width="1.25" d="M246.577,432.475c0,0,42.558,46.195,61.979,64.549
		c11.886,11.211,37.623,34.875,37.623,34.875s97.034-13.146,83.905,42.967c-3.878,16.566-112.937-0.035-112.937-0.035
		s-40.467-35.184-67.328-63.725c-32.669-34.721-60.172-57.912-60.172-57.912"/>
	<path id="path4025" fill="none" stroke="#42291B" stroke-width="0.985" d="M115.943,522.275
		c-0.163,3.799,39.04,46.146-2.339,57.863c-31.196,8.809-85.74-80.242-60.366-95.521c15.566-9.33,29.46,1.02,29.46,1.02
		s20.293-5.494,35.166-12.295c25.289-11.607,34.103-18.713,34.103-18.713"/>
	<path id="path4029" fill="none" stroke="#42291B" stroke-width="0.985" d="M217.37,479.139c0,0-59.934,38.875-110.419,46.961"/>
	<path id="path4033" fill="none" stroke="#42291B" stroke-width="0.985" d="M128.033,431.275
		c-13.951-2.652-30.369-8.701-44.002-21.846c-30.466-29.504-38.805-76.588-61.519-65.357
		c-22.713,11.264-24.979,86.818,44.247,112.586c23.839,8.93,45.876,9.746,63.762,9.916"/>
	<path id="path4037" fill="none" stroke="#42291B" stroke-width="5.05" d="M477.843,222.055c0,0,26.426-3.309,39.969-7.496
		c15.836-4.909,26.738-13.762,26.738-13.762"/>
	<path id="path4041" fill="none" stroke="#42291B" stroke-width="5.05" d="M479.268,256.51c0,0,15.49,6.951,31.646,9.176
		c15.969,2.151,26.826,1.592,26.826,1.592"/>
	<path id="path4045" fill="none" stroke="#42291B" stroke-width="5.05" d="M275.447,241.141c0,0,59.115,19.8,81.314,25.482
		c22.145,5.634,62.276,11.981,62.276,11.981s-48.259,57.504-101.641,40.524C264.016,302.158,266.215,268.231,275.447,241.141z"/>
	<path id="path4049" fill="#42291B" d="M489.239,320.836c0.01,0,0.01,0,0.01,0S489.249,320.836,489.239,320.836"/>
</g>
</svg>
